{
  "accessors": [
    {
      "bufferView": 2,
      "componentType": 5126,
      "count": 140,
      "max": [
        3.225306987762451,
        -0.3303169906139374,
        14.055065155029297
      ],
      "min": [
        -3.2253119945526123,
        -0.33031800389289856,
        0.2793079912662506
      ],
      "type": "VEC3"
    },
    {
      "bufferView": 2,
      "byteOffset": 1680,
      "componentType": 5126,
      "count": 140,
      "max": [
        0.0,
        -1.0,
        7.999999979801942e-06
      ],
      "min": [
        0.0,
        -1.0,
        -7.999999979801942e-06
      ],
      "type": "VEC3"
    },
    {
      "bufferView": 3,
      "componentType": 5126,
      "count": 140,
      "max": [
        0.9999939799308777,
        2.8513838401522662e-08,
        -0.0034876521676778793,
        1.0
      ],
      "min": [
        0.9999937415122986,
        -2.7901213783820822e-08,
        -0.0035642297007143497,
        1.0
      ],
      "type": "VEC4"
    },
    {
      "bufferView": 1,
      "componentType": 5126,
      "count": 140,
      "max": [
        0.9804689884185791,
        0.4958040118217468
      ],
      "min": [
        0.7562969923019409,
        0.019531000405550003
      ],
      "type": "VEC2"
    },
    {
      "bufferView": 0,
      "componentType": 5125,
      "count": 414,
      "type": "SCALAR"
    },
    {
      "bufferView": 2,
      "byteOffset": 3360,
      "componentType": 5126,
      "count": 2300,
      "max": [
        3.4093799591064453,
        0.39572200179100037,
        14.243438720703125
      ],
      "min": [
        -3.4093809127807617,
        -0.40295401215553284,
        0.12263300269842148
      ],
      "type": "VEC3"
    },
    {
      "bufferView": 2,
      "byteOffset": 30960,
      "componentType": 5126,
      "count": 2300,
      "max": [
        0.9998526573181152,
        1.0,
        0.9999625086784363
      ],
      "min": [
        -0.999855637550354,
        -1.0,
        -0.9999693632125854
      ],
      "type": "VEC3"
    },
    {
      "bufferView": 3,
      "byteOffset": 2240,
      "componentType": 5126,
      "count": 2300,
      "max": [
        0.9999991655349731,
        0.999996542930603,
        0.5198073983192444,
        1.0
      ],
      "min": [
        -1.0,
        -0.9999954700469971,
        -0.5208900570869446,
        1.0
      ],
      "type": "VEC4"
    },
    {
      "bufferView": 1,
      "byteOffset": 1120,
      "componentType": 5126,
      "count": 2300,
      "max": [
        0.5051929950714111,
        0.5947399735450745
      ],
      "min": [
        0.13757699728012085,
        0.019531000405550003
      ],
      "type": "VEC2"
    },
    {
      "bufferView": 0,
      "byteOffset": 1656,
      "componentType": 5125,
      "count": 12450,
      "type": "SCALAR"
    },
    {
      "bufferView": 2,
      "byteOffset": 58560,
      "componentType": 5126,
      "count": 1304,
      "max": [
        3.409843921661377,
        0.39728501439094543,
        14.243598937988281
      ],
      "min": [
        -3.4098479747772217,
        -0.32032299041748047,
        0.01669199950993061
      ],
      "type": "VEC3"
    },
    {
      "bufferView": 2,
      "byteOffset": 74208,
      "componentType": 5126,
      "count": 1304,
      "max": [
        1.0,
        1.0,
        0.9999709725379944
      ],
      "min": [
        -1.0,
        -1.0,
        -0.9999708533287048
      ],
      "type": "VEC3"
    },
    {
      "bufferView": 3,
      "byteOffset": 39040,
      "componentType": 5126,
      "count": 1304,
      "max": [
        1.0,
        0.999998152256012,
        1.0,
        1.0
      ],
      "min": [
        -0.9998141527175903,
        -0.9999980926513672,
        -1.0,
        1.0
      ],
      "type": "VEC4"
    },
    {
      "bufferView": 1,
      "byteOffset": 19520,
      "componentType": 5126,
      "count": 1304,
      "max": [
        0.7490749955177307,
        0.7121919989585876
      ],
      "min": [
        0.2907559871673584,
        0.019531000405550003
      ],
      "type": "VEC2"
    },
    {
      "bufferView": 0,
      "byteOffset": 51456,
      "componentType": 5125,
      "count": 2580,
      "type": "SCALAR"
    },
    {
      "bufferView": 2,
      "byteOffset": 89856,
      "componentType": 5126,
      "count": 65532,
      "max": [
        3.567707061767578,
        0.2643359899520874,
        14.372261047363281
      ],
      "min": [
        -3.567707061767578,
        -0.3220070004463196,
        0.0
      ],
      "type": "VEC3"
    },
    {
      "bufferView": 2,
      "byteOffset": 876240,
      "componentType": 5126,
      "count": 65532,
      "max": [
        1.0,
        1.0,
        1.0
      ],
      "min": [
        -1.0,
        -1.0,
        -1.0
      ],
      "type": "VEC3"
    },
    {
      "bufferView": 3,
      "byteOffset": 59904,
      "componentType": 5126,
      "count": 65532,
      "max": [
        0.9999923706054688,
        1.0,
        1.0,
        1.0
      ],
      "min": [
        -1.0,
        -1.0,
        -1.0,
        1.0
      ],
      "type": "VEC4"
    },
    {
      "bufferView": 1,
      "byteOffset": 29952,
      "componentType": 5126,
      "count": 65532,
      "max": [
        0.9773150086402893,
        0.90727698802948
      ],
      "min": [
        0.019531000405550003,
        0.019531000405550003
      ],
      "type": "VEC2"
    },
    {
      "bufferView": 0,
      "byteOffset": 61776,
      "componentType": 5125,
      "count": 375930,
      "type": "SCALAR"
    },
    {
      "bufferView": 2,
      "byteOffset": 1662624,
      "componentType": 5126,
      "count": 2091,
      "max": [
        2.675678014755249,
        0.15344500541687012,
        0.12286899983882904
      ],
      "min": [
        1.6938899755477905,
        -0.234498992562294,
        0.00014600000577047467
      ],
      "type": "VEC3"
    },
    {
      "bufferView": 2,
      "byteOffset": 1687716,
      "componentType": 5126,
      "count": 2091,
      "max": [
        0.9990763664245605,
        0.9995507597923279,
        -0.012646998278796673
      ],
      "min": [
        -0.9990710020065308,
        -0.9995538592338562,
        -1.0
      ],
      "type": "VEC3"
    },
    {
      "bufferView": 3,
      "byteOffset": 1108416,
      "componentType": 5126,
      "count": 2091,
      "max": [
        0.5939050316810608,
        -0.011857680045068264,
        0.9992377161979675,
        1.0
      ],
      "min": [
        -0.6290731430053711,
        -0.9994627833366394,
        -0.9991579651832581,
        1.0
      ],
      "type": "VEC4"
    },
    {
      "bufferView": 1,
      "byteOffset": 554208,
      "componentType": 5126,
      "count": 2091,
      "max": [
        0.5783699750900269,
        0.6078780293464661
      ],
      "min": [
        0.0823419988155365,
        0.5114480257034302
      ],
      "type": "VEC2"
    },
    {
      "bufferView": 0,
      "byteOffset": 1565496,
      "componentType": 5125,
      "count": 10290,
      "type": "SCALAR"
    },
    {
      "bufferView": 2,
      "byteOffset": 1712808,
      "componentType": 5126,
      "count": 7759,
      "max": [
        3.409930944442749,
        0.40295299887657166,
        14.243438720703125
      ],
      "min": [
        -3.4099349975585938,
        -0.1072079986333847,
        0.01077600009739399
      ],
      "type": "VEC3"
    },
    {
      "bufferView": 2,
      "byteOffset": 1805916,
      "componentType": 5126,
      "count": 7759,
      "max": [
        1.0,
        1.0,
        1.0
      ],
      "min": [
        -1.0,
        -1.0,
        -1.0
      ],
      "type": "VEC3"
    },
    {
      "bufferView": 3,
      "byteOffset": 1141872,
      "componentType": 5126,
      "count": 7759,
      "max": [
        0.9998141527175903,
        1.0,
        1.0,
        1.0
      ],
      "min": [
        -1.0,
        -1.0,
        -1.0,
        1.0
      ],
      "type": "VEC4"
    },
    {
      "bufferView": 1,
      "byteOffset": 570936,
      "componentType": 5126,
      "count": 7759,
      "max": [
        0.7955020070075989,
        0.7121919989585876
      ],
      "min": [
        0.019531000405550003,
        0.019531000405550003
      ],
      "type": "VEC2"
    },
    {
      "bufferView": 0,
      "byteOffset": 1606656,
      "componentType": 5125,
      "count": 34350,
      "type": "SCALAR"
    },
    {
      "bufferView": 2,
      "byteOffset": 1899024,
      "componentType": 5126,
      "count": 9307,
      "max": [
        2.954313039779663,
        0.40295299887657166,
        13.804264068603516
      ],
      "min": [
        1.876796007156372,
        0.27761200070381165,
        11.391304016113281
      ],
      "type": "VEC3"
    },
    {
      "bufferView": 2,
      "byteOffset": 2010708,
      "componentType": 5126,
      "count": 9307,
      "max": [
        1.0,
        1.0,
        1.0
      ],
      "min": [
        -1.0,
        -0.9999866485595703,
        -1.0
      ],
      "type": "VEC3"
    },
    {
      "bufferView": 3,
      "byteOffset": 1266016,
      "componentType": 5126,
      "count": 9307,
      "max": [
        0.9999794363975525,
        0.9997792840003967,
        0.9996803998947144,
        1.0
      ],
      "min": [
        -0.9999794363975525,
        -0.9997751712799072,
        -1.0,
        1.0
      ],
      "type": "VEC4"
    },
    {
      "bufferView": 1,
      "byteOffset": 633008,
      "componentType": 5126,
      "count": 9307,
      "max": [
        0.8285139799118042,
        0.7121919989585876
      ],
      "min": [
        0.2908569872379303,
        0.4955489933490753
      ],
      "type": "VEC2"
    },
    {
      "bufferView": 0,
      "byteOffset": 1744056,
      "componentType": 5125,
      "count": 49968,
      "type": "SCALAR"
    }
  ],
  "asset": {
    "extras": {
      "author": "HQ3DMOD (https://sketchfab.com/AivisAstics)",
      "license": "SKETCHFAB Standard (https://sketchfab.com/licenses)",
      "source": "https://sketchfab.com/3d-models/smartphone-02-95c6560ae86e4393951c0ac0925e0d3d",
      "title": "Smartphone 02"
    },
    "generator": "Sketchfab-12.65.0",
    "version": "2.0"
  },
  "bufferViews": [
    {
      "buffer": 0,
      "byteLength": 1943928,
      "name": "floatBufferViews",
      "target": 34963
    },
    {
      "buffer": 0,
      "byteLength": 707464,
      "byteOffset": 1943928,
      "byteStride": 8,
      "name": "floatBufferViews",
      "target": 34962
    },
    {
      "buffer": 0,
      "byteLength": 2122392,
      "byteOffset": 2651392,
      "byteStride": 12,
      "name": "floatBufferViews",
      "target": 34962
    },
    {
      "buffer": 0,
      "byteLength": 1414928,
      "byteOffset": 4773784,
      "byteStride": 16,
      "name": "floatBufferViews",
      "target": 34962
    }
  ],
  "buffers": [
    {
      "byteLength": 6188712,
      "uri": "scene.bin"
    }
  ],
  "extensionsUsed": [
    "KHR_materials_clearcoat",
    "KHR_materials_transmission"
  ],
  "images": [
    {
      "uri": "textures/glass_Mat_baseColor.png"
    },
    {
      "uri": "textures/glass_Mat_metallicRoughness.png"
    },
    {
      "uri": "textures/glass_Mat_normal.png"
    },
    {
      "uri": "textures/glass_Mat_transmission.png"
    },
    {
      "uri": "textures/phone_Mat_baseColor.png"
    },
    {
      "uri": "textures/phone_Mat_metallicRoughness.png"
    },
    {
      "uri": "textures/phone_Mat_normal.png"
    },
    {
      "uri": "textures/screen_Mat_baseColor.png"
    },
    {
      "uri": "textures/screen_Mat_metallicRoughness.png"
    },
    {
      "uri": "textures/screen_Mat_normal.png"
    },
    {
      "uri": "textures/screen_Mat_transmission.png"
    }
  ],
  "materials": [
    {
      "alphaMode": "BLEND",
      "doubleSided": true,
      "extensions": {
        "KHR_materials_clearcoat": {
          "clearcoatFactor": 1.0,
          "clearcoatRoughnessFactor": 0.04
        },
        "KHR_materials_transmission": {
          "transmissionFactor": 1.0,
          "transmissionTexture": {
            "index": 3
          }
        }
      },
      "name": "glass_Mat",
      "normalTexture": {
        "index": 2
      },
      "pbrMetallicRoughness": {
        "baseColorTexture": {
          "index": 0
        },
        "metallicRoughnessTexture": {
          "index": 1
        }
      }
    },
    {
      "alphaMode": "BLEND",
      "doubleSided": true,
      "name": "phone_Mat",
      "normalTexture": {
        "index": 6
      },
      "pbrMetallicRoughness": {
        "baseColorTexture": {
          "index": 4
        },
        "metallicRoughnessTexture": {
          "index": 5
        }
      }
    },
    {
      "alphaMode": "BLEND",
      "doubleSided": true,
      "extensions": {
        "KHR_materials_transmission": {
          "transmissionFactor": 1.0,
          "transmissionTexture": {
            "index": 10
          }
        }
      },
      "name": "screen_Mat",
      "normalTexture": {
        "index": 9
      },
      "pbrMetallicRoughness": {
        "baseColorTexture": {
          "index": 7
        },
        "metallicRoughnessTexture": {
          "index": 8
        }
      }
    }
  ],
  "meshes": [
    {
      "name": "Object_0",
      "primitives": [
        {
          "attributes": {
            "NORMAL": 1,
            "POSITION": 0,
            "TANGENT": 2,
            "TEXCOORD_0": 3
          },
          "indices": 4,
          "material": 2,
          "mode": 4
        }
      ]
    },
    {
      "name": "Object_1",
      "primitives": [
        {
          "attributes": {
            "NORMAL": 6,
            "POSITION": 5,
            "TANGENT": 7,
            "TEXCOORD_0": 8
          },
          "indices": 9,
          "material": 0,
          "mode": 4
        }
      ]
    },
    {
      "name": "Object_2",
      "primitives": [
        {
          "attributes": {
            "NORMAL": 11,
            "POSITION": 10,
            "TANGENT": 12,
            "TEXCOORD_0": 13
          },
          "indices": 14,
          "material": 1,
          "mode": 4
        }
      ]
    },
    {
      "name": "Object_3",
      "primitives": [
        {
          "attributes": {
            "NORMAL": 16,
            "POSITION": 15,
            "TANGENT": 17,
            "TEXCOORD_0": 18
          },
          "indices": 19,
          "material": 1,
          "mode": 4
        }
      ]
    },
    {
      "name": "Object_4",
      "primitives": [
        {
          "attributes": {
            "NORMAL": 21,
            "POSITION": 20,
            "TANGENT": 22,
            "TEXCOORD_0": 23
          },
          "indices": 24,
          "material": 1,
          "mode": 4
        }
      ]
    },
    {
      "name": "Object_5",
      "primitives": [
        {
          "attributes": {
            "NORMAL": 26,
            "POSITION": 25,
            "TANGENT": 27,
            "TEXCOORD_0": 28
          },
          "indices": 29,
          "material": 1,
          "mode": 4
        }
      ]
    },
    {
      "name": "Object_6",
      "primitives": [
        {
          "attributes": {
            "NORMAL": 31,
            "POSITION": 30,
            "TANGENT": 32,
            "TEXCOORD_0": 33
          },
          "indices": 34,
          "material": 1,
          "mode": 4
        }
      ]
    }
  ],
  "nodes": [
    {
      "children": [
        1
      ],
      "matrix": [
        1.0,
        0.0,
        0.0,
        0.0,
        0.0,
        2.220446049250313e-16,
        -1.0,
        0.0,
        0.0,
        1.0,
        2.220446049250313e-16,
        0.0,
        0.0,
        0.0,
        0.0,
        1.0
      ],
      "name": "Sketchfab_model"
    },
    {
      "children": [
        2,
        3,
        4,
        5,
        6,
        7,
        8
      ],
      "name": "smartphone_02.obj.cleaner.materialmerger.gles"
    },
    {
      "mesh": 0,
      "name": "Object_2"
    },
    {
      "mesh": 1,
      "name": "Object_3"
    },
    {
      "mesh": 2,
      "name": "Object_4"
    },
    {
      "mesh": 3,
      "name": "Object_5"
    },
    {
      "mesh": 4,
      "name": "Object_6"
    },
    {
      "mesh": 5,
      "name": "Object_7"
    },
    {
      "mesh": 6,
      "name": "Object_8"
    }
  ],
  "samplers": [
    {
      "magFilter": 9729,
      "minFilter": 9987,
      "wrapS": 10497,
      "wrapT": 10497
    }
  ],
  "scene": 0,
  "scenes": [
    {
      "name": "Sketchfab_Scene",
      "nodes": [
        0
      ]
    }
  ],
  "textures": [
    {
      "sampler": 0,
      "source": 0
    },
    {
      "sampler": 0,
      "source": 1
    },
    {
      "sampler": 0,
      "source": 2
    },
    {
      "sampler": 0,
      "source": 3
    },
    {
      "sampler": 0,
      "source": 4
    },
    {
      "sampler": 0,
      "source": 5
    },
    {
      "sampler": 0,
      "source": 6
    },
    {
      "sampler": 0,
      "source": 7
    },
    {
      "sampler": 0,
      "source": 8
    },
    {
      "sampler": 0,
      "source": 9
    },
    {
      "sampler": 0,
      "source": 10
    }
  ]
}
